<svg width="500" height="495" viewBox="0 0 500 495" fill="none" xmlns="http://www.w3.org/2000/svg" xmlns:xlink="http://www.w3.org/1999/xlink">
<circle cx="245.5" cy="247.5" r="180" stroke="#26C499" stroke-width="5"/>
<path d="M251 452.5C223.743 452.5 196.755 447.195 171.576 436.888C146.397 426.582 123.522 411.477 104.256 392.438C84.9908 373.4 69.7113 350.801 59.2877 325.933C48.8642 301.065 43.5 274.414 43.5 247.5C43.5 220.586 48.8642 193.935 59.2877 169.067C69.7113 144.199 84.9908 121.6 104.256 102.562C123.522 83.5233 146.397 68.4183 171.576 58.1118C196.755 47.8053 223.743 42.5 251 42.5" stroke="#26C499" stroke-width="9" stroke-linecap="round"/>
<path d="M250 490.5C217.754 490.5 185.825 484.212 156.036 471.997C126.248 459.781 99.184 441.878 76.3893 419.311C53.5946 396.744 35.5153 369.956 23.1814 340.477C10.8476 310.998 4.50002 279.405 4.50002 247.5C4.50002 215.595 10.8476 184.002 23.1814 154.523C35.5153 125.044 53.5946 98.2557 76.3893 75.689C99.1841 53.1222 126.248 35.2188 156.037 23.0033C185.825 10.7878 217.754 4.49998 250 4.49999" stroke="#26C499" stroke-width="9" stroke-linecap="round"/>
<path d="M237 473.5C266.746 473.5 296.2 467.654 323.681 456.295C351.162 444.937 376.131 428.289 397.163 407.303C418.195 386.316 434.878 361.402 446.26 333.983C457.642 306.564 463.5 277.177 463.5 247.5C463.5 217.823 457.642 188.436 446.26 161.017C434.878 133.598 418.195 108.684 397.163 87.6973C376.131 66.7108 351.162 50.0629 323.681 38.7045C296.2 27.3462 266.746 21.5 237 21.5" stroke="#26C499" stroke-width="9" stroke-linecap="round"/>
<mask id="mask0_434_17195" style="mask-type:alpha" maskUnits="userSpaceOnUse" x="68" y="69" width="355" height="357">
<ellipse cx="245.5" cy="247.5" rx="177.5" ry="178.5" fill="#D9D9D9"/>
</mask>
<g mask="url(#mask0_434_17195)">
<rect x="-6" y="65" width="474" height="357" fill="url(#pattern0)"/>
</g>
<defs>
<pattern id="pattern0" patternContentUnits="objectBoundingBox" width="1" height="1">
<use xlink:href="#image0_434_17195" transform="matrix(0.000275783 0 0 0.000366166 -0.0648045 0)"/>
</pattern>
</defs>
</svg>
